<svg width="24" height="24" viewBox="0 0 24 24" fill="none" xmlns="http://www.w3.org/2000/svg">
<path d="M8.99976 19.9219H14.9998C15.25 19.9219 15.4915 20.0088 15.6833 20.166L15.7625 20.2373C15.9646 20.4395 16.0779 20.7141 16.0779 21C16.0779 21.2503 15.9911 21.4917 15.8337 21.6836L15.7625 21.7627C15.5603 21.9648 15.2856 22.0781 14.9998 22.0781H8.99976C8.74976 22.0781 8.50888 21.991 8.31714 21.834L8.23804 21.7627C8.03585 21.5605 7.92163 21.2859 7.92163 21C7.92163 20.7498 8.00855 20.5083 8.16577 20.3164L8.23804 20.2373C8.44013 20.0354 8.71408 19.9219 8.99976 19.9219ZM11.9998 1.92188C13.9461 1.92188 15.8177 2.64706 17.2537 3.94727L17.5349 4.21484C19.003 5.6829 19.8279 7.67385 19.8279 9.75L19.8328 10.1953C19.8799 12.2546 20.2567 14.0094 20.9314 15.3086L21.0808 15.5791C21.242 15.8578 21.3265 16.1742 21.3269 16.4961L21.323 16.6172C21.3074 16.8572 21.2445 17.0917 21.1384 17.3076L21.0818 17.4141C20.943 17.6583 20.7498 17.8667 20.5173 18.0225L20.4148 18.0859C20.1717 18.2263 19.8999 18.3083 19.6208 18.3252L19.5007 18.3281H4.49976C4.21842 18.3303 3.94076 18.2671 3.68921 18.1436L3.58276 18.0869C3.33909 17.9463 3.13263 17.7505 2.97827 17.5166L2.91479 17.4141C2.75493 17.1346 2.6715 16.818 2.67261 16.4961L2.67651 16.376C2.69309 16.1358 2.75691 15.9011 2.86401 15.6855L2.92163 15.5791C3.74094 14.1696 4.17163 12.1525 4.17163 9.75C4.17163 7.80365 4.89681 5.93208 6.19702 4.49609L6.4646 4.21484C7.93259 2.74685 9.92371 1.92195 11.9998 1.92188ZM11.9998 4.07812C10.4956 4.0782 9.05263 4.67564 7.98901 5.73926C6.92542 6.80293 6.32788 8.24579 6.32788 9.75C6.32788 12.2896 5.90837 14.4253 5.08276 16.1045L5.04956 16.1719H18.95L18.9167 16.1045C18.0911 14.4253 17.6716 12.2887 17.6716 9.75C17.6716 8.33984 17.1468 6.98378 16.2048 5.94336L16.0105 5.73926C14.9468 4.67566 13.504 4.07812 11.9998 4.07812Z" fill="#475569" stroke="#475569" stroke-width="0.09375"/>
</svg>
