<svg width="24" height="24" viewBox="0 0 24 24" fill="none" xmlns="http://www.w3.org/2000/svg">
<path d="M14.8027 0.436829C14.9726 0.405091 15.1466 0.41497 15.3105 0.464172L15.4707 0.525696C15.6263 0.601065 15.7606 0.712912 15.8633 0.849915L15.9551 0.995422C16.0354 1.14838 16.0779 1.31748 16.0791 1.48859L16.0664 1.65948L15.0732 8.2796L15.0684 8.31671L15.1025 8.33038L19.9004 10.2493C20.0224 10.2982 20.1343 10.3687 20.2305 10.4573L20.3213 10.5511C20.4064 10.6511 20.4719 10.7659 20.5156 10.889L20.5518 11.015C20.5808 11.1435 20.586 11.2758 20.5674 11.4056L20.541 11.5345C20.5065 11.6616 20.4492 11.7811 20.3721 11.887L20.2881 11.9886L9.78809 23.2386C9.63097 23.4072 9.42379 23.5214 9.19727 23.5638C9.0275 23.5955 8.8533 23.5856 8.68945 23.5364L8.5293 23.4739C8.32196 23.3735 8.15212 23.2091 8.04492 23.0052C7.96445 22.852 7.92208 22.6824 7.9209 22.511L7.93359 22.3401L8.92676 15.7171L8.93164 15.681L8.89746 15.6673L4.09961 13.7484C3.97769 13.6995 3.8656 13.6288 3.76953 13.5403L3.67871 13.4456C3.59361 13.3455 3.52808 13.2308 3.48438 13.1077L3.44727 12.9818C3.4187 12.8535 3.41383 12.7214 3.43262 12.5921L3.45996 12.4642C3.4945 12.3374 3.55195 12.2183 3.62891 12.1126L3.71191 12.011L14.2119 0.761047C14.3297 0.634725 14.4757 0.539515 14.6367 0.48175L14.8027 0.436829ZM13.3154 4.88507L6.41016 12.2835L6.36328 12.3343L6.42676 12.3597L10.5254 13.9993C10.7509 14.0895 10.9397 14.2535 11.0605 14.4642C11.1661 14.6484 11.2148 14.8591 11.2012 15.0696L11.1914 15.1595L10.6035 19.0755L10.5811 19.2249L10.6846 19.1146L17.5898 11.7161L17.6367 11.6663L17.5732 11.6409L13.4746 10.0013C13.2773 9.92233 13.1084 9.78636 12.9883 9.61261L12.9395 9.53644C12.8337 9.352 12.7851 9.14084 12.7988 8.92999L12.8086 8.84015L13.3965 4.92413L13.4189 4.77472L13.3154 4.88507Z" fill="#475569" stroke="#475569" stroke-width="0.09375"/>
</svg>
