<svg width="24" height="24" viewBox="0 0 24 24" fill="none" xmlns="http://www.w3.org/2000/svg">
<path d="M16.5 1.17188C16.7503 1.17188 16.9917 1.25873 17.1836 1.41602L17.2627 1.4873C17.4649 1.68949 17.5781 1.96406 17.5781 2.25V2.67188H19.5C19.9848 2.67188 20.4501 2.86419 20.793 3.20703C21.1358 3.54987 21.3281 4.01515 21.3281 4.5V19.5C21.3281 19.9848 21.1358 20.4501 20.793 20.793C20.4501 21.1358 19.9848 21.3281 19.5 21.3281H4.5C4.07585 21.3281 3.66707 21.1805 3.3418 20.9141L3.20703 20.793C2.86419 20.4501 2.67188 19.9848 2.67188 19.5V4.5C2.67188 4.07585 2.8195 3.66707 3.08594 3.3418L3.20703 3.20703C3.54987 2.86419 4.01515 2.67188 4.5 2.67188H6.42188V2.25C6.42188 1.99972 6.50873 1.75828 6.66602 1.56641L6.7373 1.4873C6.93949 1.28512 7.21406 1.17188 7.5 1.17188C7.75028 1.17188 7.99172 1.25873 8.18359 1.41602L8.2627 1.4873C8.46488 1.68949 8.57812 1.96406 8.57812 2.25V2.67188H15.4219V2.25C15.4219 1.99973 15.5087 1.75828 15.666 1.56641L15.7373 1.4873C15.9395 1.28512 16.2141 1.17188 16.5 1.17188ZM4.82812 19.1719H19.1719V9.32812H4.82812V19.1719ZM4.82812 7.17188H19.1719V4.82812H17.5781V4.875C17.5781 5.12527 17.4913 5.36672 17.334 5.55859L17.2627 5.6377C17.0605 5.83988 16.7859 5.95312 16.5 5.95312C16.2497 5.95312 16.0083 5.86627 15.8164 5.70898L15.7373 5.6377C15.5351 5.43551 15.4219 5.16094 15.4219 4.875V4.82812H8.57812V4.875C8.57812 5.12528 8.49127 5.36672 8.33398 5.55859L8.2627 5.6377C8.06051 5.83988 7.78594 5.95312 7.5 5.95312C7.24972 5.95312 7.00828 5.86627 6.81641 5.70898L6.7373 5.6377C6.53512 5.43551 6.42188 5.16094 6.42188 4.875V4.82812H4.82812V7.17188Z" fill="#475569" stroke="#475569" stroke-width="0.09375"/>
</svg>
