<svg width="24" height="24" viewBox="0 0 24 24" fill="none" xmlns="http://www.w3.org/2000/svg">
<path d="M3.75 16.9219H20.25C20.5003 16.9219 20.7417 17.0087 20.9336 17.166L21.0127 17.2373C21.2149 17.4395 21.3281 17.7141 21.3281 18C21.3281 18.2503 21.2413 18.4917 21.084 18.6836L21.0127 18.7627C20.8105 18.9649 20.5359 19.0781 20.25 19.0781H3.75C3.49973 19.0781 3.25828 18.9913 3.06641 18.834L2.9873 18.7627C2.78512 18.5605 2.67188 18.2859 2.67188 18C2.67188 17.7497 2.75873 17.5083 2.91602 17.3164L2.9873 17.2373C3.18949 17.0351 3.46406 16.9219 3.75 16.9219ZM3.75 10.9219H20.25C20.5003 10.9219 20.7417 11.0087 20.9336 11.166L21.0127 11.2373C21.2149 11.4395 21.3281 11.7141 21.3281 12C21.3281 12.2503 21.2413 12.4917 21.084 12.6836L21.0127 12.7627C20.8105 12.9649 20.5359 13.0781 20.25 13.0781H3.75C3.49973 13.0781 3.25828 12.9913 3.06641 12.834L2.9873 12.7627C2.78512 12.5605 2.67188 12.2859 2.67188 12C2.67188 11.7497 2.75873 11.5083 2.91602 11.3164L2.9873 11.2373C3.18949 11.0351 3.46406 10.9219 3.75 10.9219ZM3.75 4.92188H20.25C20.5003 4.92188 20.7417 5.00873 20.9336 5.16602L21.0127 5.2373C21.2149 5.43949 21.3281 5.71406 21.3281 6C21.3281 6.25027 21.2413 6.49172 21.084 6.68359L21.0127 6.7627C20.8105 6.96488 20.5359 7.07812 20.25 7.07812H3.75C3.49972 7.07812 3.25828 6.99127 3.06641 6.83398L2.9873 6.7627C2.78512 6.56051 2.67188 6.28594 2.67188 6C2.67188 5.74972 2.75873 5.50828 2.91602 5.31641L2.9873 5.2373C3.18949 5.03512 3.46406 4.92188 3.75 4.92188Z" fill="#475569" stroke="#475569" stroke-width="0.09375"/>
</svg>
