<svg width="24" height="24" viewBox="0 0 24 24" fill="none" xmlns="http://www.w3.org/2000/svg">
<path d="M12 1.92136C12.4241 1.92136 12.8329 2.06898 13.1582 2.33542L13.293 2.45651L20.793 9.95651C20.9208 10.0836 21.0285 10.2289 21.1133 10.3872L21.1904 10.5493C21.2594 10.7159 21.3022 10.8919 21.3193 11.0708L21.3281 11.2495V20.2505C21.328 20.5004 21.241 20.7414 21.084 20.9331L21.0127 21.0122C20.8105 21.2144 20.5359 21.3286 20.25 21.3286H3.75C3.49982 21.3286 3.25825 21.2416 3.06641 21.0844L2.9873 21.0122C2.78539 20.8101 2.67199 20.5361 2.67188 20.2505V11.2495C2.67134 11.0695 2.69812 10.8909 2.75 10.7192L2.80957 10.5493C2.87851 10.3829 2.97178 10.2278 3.08594 10.0893L3.20703 9.95651H3.20801L10.708 2.45651C11.0508 2.11397 11.5154 1.92136 12 1.92136ZM19.1719 11.3852L12 4.21335L4.82812 11.3852V19.1723H19.1719V11.3852Z" fill="#475569" stroke="#475569" stroke-width="0.09375"/>
</svg>
