<svg width="18" height="18" viewBox="0 0 18 18" fill="none" xmlns="http://www.w3.org/2000/svg">
<path d="M9 0.5625C7.33122 0.5625 5.69992 1.05735 4.31238 1.98448C2.92484 2.9116 1.84338 4.22936 1.20477 5.77111C0.566156 7.31286 0.399065 9.00936 0.724628 10.6461C1.05019 12.2828 1.85379 13.7862 3.03379 14.9662C4.2138 16.1462 5.71721 16.9498 7.35393 17.2754C8.99064 17.6009 10.6871 17.4338 12.2289 16.7952C13.7706 16.1566 15.0884 15.0752 16.0155 13.6876C16.9427 12.3001 17.4375 10.6688 17.4375 9C17.435 6.763 16.5453 4.61833 14.9635 3.03653C13.3817 1.45473 11.237 0.564981 9 0.5625ZM15.5625 8.98906C15.5188 9.09922 15.1172 9.54453 13.775 9.95234C13.324 10.0866 12.8657 10.1949 12.4023 10.2766C12.4258 9.85156 12.4375 9.42422 12.4375 9C12.4375 6.82422 12.1289 4.56016 11.4805 2.92578C12.6846 3.41886 13.7154 4.25826 14.4421 5.33766C15.1688 6.41705 15.5587 7.68785 15.5625 8.98906ZM8.98907 2.4375C9.09922 2.48125 9.54454 2.88281 9.95235 4.225C10.343 5.52187 10.5625 7.21797 10.5625 9C10.5625 9.5125 10.5438 10.0156 10.5094 10.5094C10.018 10.5438 9.5125 10.5625 9 10.5625C7.21797 10.5625 5.52188 10.3453 4.225 9.95234C2.88282 9.54688 2.48125 9.09922 2.4375 8.98906C2.44245 7.253 3.13429 5.58946 4.36188 4.36187C5.58946 3.13429 7.25301 2.44245 8.98907 2.4375ZM2.92579 11.4805C4.56016 12.1289 6.82422 12.4375 9 12.4375C9.42422 12.4375 9.85157 12.4258 10.2766 12.4016C10.195 12.8652 10.0867 13.3238 9.95235 13.775C9.54688 15.1172 9.09922 15.5187 8.98907 15.5625C7.68785 15.5587 6.41705 15.1687 5.33766 14.4421C4.25827 13.7154 3.41886 12.6846 2.92579 11.4805ZM11.4805 15.0742C11.8078 14.2484 12.0492 13.2617 12.207 12.207C13.2617 12.0508 14.2484 11.8078 15.0742 11.4805C14.7427 12.2874 14.2543 13.0205 13.6374 13.6374C13.0205 14.2543 12.2874 14.7427 11.4805 15.0742Z" fill="#4F46E5"/>
</svg>
