<svg width="24" height="24" viewBox="0 0 24 24" fill="none" xmlns="http://www.w3.org/2000/svg">
<path d="M11.9998 1.91907C13.3925 1.91907 14.7524 2.32974 15.9099 3.0968L16.1384 3.255C17.3436 4.12362 18.2448 5.3496 18.7146 6.75891C19.1551 8.08027 19.1955 9.50014 18.8337 10.8409L18.7566 11.1075C18.3137 12.5255 17.4352 13.768 16.2468 14.6593L16.1804 14.7091L16.2576 14.7404C18.6529 15.7128 20.6512 17.4632 21.9314 19.7091V19.7101C22.0469 19.9259 22.0854 20.1734 22.0417 20.4122L22.0183 20.5138C21.9512 20.7493 21.8057 20.9536 21.6082 21.0948L21.5203 21.1515C21.3083 21.274 21.0622 21.3202 20.822 21.2843L20.7195 21.2638C20.4482 21.1959 20.214 21.0256 20.0662 20.7882H20.0652C18.3581 17.8395 15.3436 16.0782 11.9998 16.0782C8.76012 16.0783 5.82927 17.7303 4.09741 20.5157L3.93335 20.7892L3.93237 20.7902C3.88127 20.8856 3.81675 20.9731 3.73999 21.049L3.65894 21.1212C3.57472 21.1891 3.48074 21.2435 3.38062 21.2833L3.27808 21.3185C3.17387 21.3482 3.06568 21.3619 2.95776 21.3595L2.84937 21.3517C2.74191 21.3383 2.63715 21.3091 2.53882 21.2648L2.44312 21.215C2.34938 21.1608 2.26442 21.0929 2.19116 21.0138L2.12183 20.9308C2.0565 20.8442 2.00412 20.7483 1.96753 20.6466L1.93628 20.5431C1.90999 20.4379 1.90001 20.3296 1.90601 20.2218L1.91675 20.1144C1.93356 20.0073 1.96684 19.9037 2.0144 19.8068L2.06714 19.712V19.7111C3.34728 17.4643 5.34697 15.713 7.74292 14.7404L7.81909 14.7091L7.75269 14.6593C6.63866 13.8236 5.79748 12.6793 5.33179 11.3712L5.2439 11.1075C4.80098 9.68959 4.81516 8.1682 5.28491 6.75891C5.72538 5.43752 6.54547 4.27758 7.6394 3.422L7.86108 3.255C9.06618 2.38642 10.5143 1.91911 11.9998 1.91907ZM12.9597 4.17297C12.1244 4.0069 11.2626 4.0607 10.4578 4.32629L10.1169 4.45325C9.2176 4.82577 8.44878 5.45637 7.90796 6.26575C7.36714 7.07515 7.07788 8.02667 7.07788 9.00012L7.08472 9.24426C7.14641 10.4602 7.65631 11.6137 8.52124 12.4786C9.38618 13.3436 10.5397 13.8534 11.7556 13.9152L11.9998 13.922C12.8516 13.922 13.6869 13.7009 14.4246 13.2833L14.7341 13.0919C15.4424 12.6186 16.0139 11.9711 16.3953 11.214L16.5476 10.8839C16.8735 10.0971 16.9889 9.24074 16.8855 8.39954L16.8269 8.04016C16.637 7.08541 16.1686 6.20799 15.4802 5.51965C14.7919 4.83135 13.9144 4.36288 12.9597 4.17297Z" fill="#475569" stroke="#475569" stroke-width="0.09375"/>
</svg>
