<svg width="24" height="24" viewBox="0 0 24 24" fill="none" xmlns="http://www.w3.org/2000/svg">
<path d="M10.2117 1.90784C12.255 1.841 14.2501 2.50509 15.8425 3.77307L16.156 4.03479C17.6931 5.38286 18.6956 7.23164 18.991 9.24573L19.0408 9.651C19.2544 11.8212 18.634 13.9913 17.3064 15.7213L17.282 15.7545L17.3103 15.7828L21.7625 20.2369L21.7957 20.2037L21.7625 20.2379L21.7683 20.2418C21.8678 20.3418 21.9468 20.4602 22.0007 20.5905C22.055 20.7214 22.0827 20.8618 22.0828 21.0035C22.0828 21.1452 22.0549 21.2857 22.0007 21.4166C21.9465 21.5477 21.8667 21.6669 21.7664 21.7672C21.6661 21.8675 21.5468 21.9473 21.4158 22.0016C21.2848 22.0558 21.1444 22.0836 21.0027 22.0836C20.8609 22.0836 20.7206 22.0558 20.5896 22.0016C20.4913 21.9609 20.4 21.9057 20.3181 21.8385L20.239 21.7672L15.783 17.3102L15.7546 17.2819L15.7214 17.3063C14.0994 18.551 12.0905 19.1741 10.0574 19.0709L9.65112 19.0406C7.61644 18.8403 5.72464 17.9208 4.31128 16.4557L4.03491 16.1559C2.68693 14.6189 1.93419 12.6551 1.90405 10.6198L1.90796 10.2115C1.97484 8.16797 2.76775 6.21968 4.13745 4.7135L4.4187 4.41858C5.86446 2.97282 7.77519 2.0933 9.80444 1.9303L10.2117 1.90784ZM11.7527 4.20178C10.585 3.96956 9.37754 4.06669 8.2644 4.4801L8.04272 4.56702C6.94268 5.02267 5.99254 5.77463 5.29663 6.73694L5.16089 6.93225C4.45531 7.98822 4.07795 9.22963 4.07788 10.4996L4.08667 10.818C4.16149 12.2991 4.74646 13.709 5.74194 14.8082L5.96069 15.0387C7.08931 16.1673 8.59484 16.8334 10.1814 16.9137L10.4998 16.9215C11.6905 16.9215 12.8567 16.5912 13.8679 15.9684L14.0681 15.8395C15.0581 15.178 15.8429 14.255 16.3376 13.1754L16.4333 12.9576C16.889 11.8575 17.029 10.6537 16.8406 9.48108L16.7986 9.2467C16.5662 8.07899 16.0139 7.00069 15.2058 6.13049L15.0408 5.95862C14.1988 5.1168 13.1404 4.52717 11.9851 4.25256L11.7527 4.20178Z" fill="#475569" stroke="#475569" stroke-width="0.09375"/>
</svg>
