<svg width="24" height="24" viewBox="0 0 24 24" fill="none" xmlns="http://www.w3.org/2000/svg">
<path d="M12 7.17188C13.2002 7.17327 14.3539 7.62093 15.2393 8.42285L15.4121 8.58789C16.3172 9.49302 16.8266 10.72 16.8281 12L16.8145 12.3564C16.7618 13.0672 16.5531 13.7577 16.2021 14.3779L16.0146 14.6826C15.5504 15.3774 14.9145 15.9374 14.1719 16.3115L13.8477 16.4609C13.0759 16.7806 12.2362 16.8934 11.4111 16.792L11.0576 16.7354C10.2383 16.5723 9.47734 16.2 8.84766 15.6572L8.58594 15.4141C7.99508 14.8232 7.56969 14.0904 7.34766 13.2891L7.26465 12.9424C7.07836 12.0059 7.17367 11.0345 7.53906 10.1523C7.85885 9.3803 8.37285 8.70616 9.02832 8.19434L9.31738 7.98535C10.0122 7.52108 10.8142 7.24695 11.6436 7.18555L12 7.17188ZM13.0225 9.53125C12.5343 9.32906 11.9968 9.2768 11.4785 9.37988C11.0251 9.47012 10.6043 9.6762 10.2559 9.97656L10.1104 10.1104C9.73676 10.4839 9.48301 10.9603 9.37988 11.4785C9.28969 11.9319 9.31876 12.4 9.46289 12.8369L9.53125 13.0225C9.70818 13.4496 9.99287 13.8223 10.3555 14.1055L10.5156 14.2217C10.955 14.5152 11.4716 14.6719 12 14.6719C12.6201 14.6719 13.2179 14.4561 13.6934 14.0664L13.8896 13.8896C14.3907 13.3886 14.6719 12.7086 14.6719 12C14.6719 11.4716 14.5152 10.955 14.2217 10.5156C13.9648 10.1312 13.613 9.82129 13.2021 9.61426L13.0225 9.53125ZM4.53027 16.2393L4.50586 16.2256L1.89844 14.7402C1.7974 14.683 1.70631 14.6094 1.62891 14.5234L1.55664 14.4336C1.4886 14.3395 1.43601 14.2353 1.40137 14.125L1.37207 14.0127C1.14144 12.8506 1.11309 11.6587 1.28613 10.4893L1.37207 9.98926C1.40214 9.8374 1.46514 9.69394 1.55566 9.56836C1.62378 9.47393 1.70666 9.39091 1.80078 9.32324L1.89844 9.26074L4.5 7.7793L4.52344 7.76562V7.73828L4.53613 4.7998L4.54297 4.68359C4.55167 4.60681 4.56888 4.53117 4.59375 4.45801L4.6377 4.34961C4.68703 4.24377 4.75293 4.1468 4.83301 4.0625L4.91797 3.98242C5.83225 3.20701 6.86802 2.58976 7.98242 2.1543L8.46484 1.97852C8.60765 1.93035 8.75911 1.91283 8.90918 1.92676C9.02183 1.93723 9.13185 1.96524 9.23535 2.00977L9.33594 2.05957L11.9775 3.53516L12 3.54785L12.0225 3.53516L14.6641 2.06055C14.7625 2.00568 14.8685 1.96623 14.9785 1.94434L15.0898 1.92871C15.2021 1.91839 15.3153 1.92562 15.4248 1.9502L15.5332 1.98047C16.6692 2.36192 17.7331 2.92882 18.6816 3.65723L19.0811 3.97852C19.1705 4.05419 19.2463 4.14432 19.3066 4.24414L19.3613 4.34668C19.4272 4.48802 19.4623 4.64192 19.4629 4.79785L19.4727 7.7334V7.76074L19.4961 7.77441L22.1016 9.25977C22.2027 9.31694 22.2936 9.39072 22.3711 9.47656L22.4443 9.56641C22.535 9.6916 22.5975 9.83479 22.6279 9.98633V9.9873C22.8591 11.1493 22.8893 12.3411 22.7168 13.5107L22.6299 14.0107C22.6073 14.1245 22.5668 14.2336 22.5098 14.334L22.4473 14.4316C22.3792 14.526 22.2962 14.6091 22.2021 14.6768L22.1045 14.7393L19.4971 16.2207L19.4736 16.2344V16.2617L19.4609 19.2002L19.4541 19.3164C19.4454 19.3932 19.4282 19.4688 19.4033 19.542L19.3594 19.6504C19.31 19.7562 19.2442 19.8532 19.1641 19.9375L19.0801 20.0176C18.1657 20.7932 17.1292 21.4102 16.0146 21.8457L15.5322 22.0215C15.4253 22.0575 15.3136 22.0767 15.2012 22.0781L15.0879 22.0732C14.9752 22.0628 14.8652 22.0348 14.7617 21.9902L14.6611 21.9404L12.0225 20.4648L12 20.4521L11.9775 20.4648L9.33887 21.9395C9.20764 22.0126 9.06269 22.0575 8.91309 22.0713C8.80088 22.0816 8.68763 22.0744 8.57812 22.0498L8.46973 22.0195C7.33378 21.6381 6.2698 21.0712 5.32129 20.3428L4.92188 20.0215C4.80275 19.9207 4.70753 19.7947 4.6416 19.6533C4.57574 19.512 4.54065 19.3581 4.54004 19.2021L4.53027 16.2666V16.2393ZM17.3076 5.32031L17.2891 5.30664C16.6774 4.84954 16.0083 4.47473 15.2988 4.19238L15.2783 4.18359L15.2588 4.19434L12.71 5.61914C12.5837 5.68898 12.4452 5.73241 12.3027 5.74805L12.1582 5.75391H11.834C11.689 5.75777 11.545 5.7327 11.4111 5.67969L11.2812 5.61816L8.73633 4.19336L8.7168 4.18262L8.69531 4.19141C7.98724 4.47398 7.31984 4.84918 6.70996 5.30664L6.69141 5.32031V5.34375L6.68066 8.18652C6.67991 8.33702 6.64794 8.48569 6.58691 8.62207L6.5166 8.75391L6.35547 9.02637C6.28333 9.1554 6.18597 9.26828 6.06934 9.35742L5.94727 9.43848L3.42676 10.8711L3.40625 10.8818L3.40332 10.9053C3.30479 11.6324 3.30479 12.3696 3.40332 13.0967L3.40625 13.1191L3.42676 13.1309L5.94824 14.5723H5.94922C6.07731 14.6447 6.18833 14.7427 6.27637 14.8594L6.35645 14.9814L6.5166 15.2529L6.51758 15.2539C6.62403 15.424 6.68078 15.6206 6.68164 15.8213L6.69141 18.6562L6.69238 18.6797L6.71094 18.6934C7.32262 19.1505 7.99168 19.5253 8.70117 19.8076L8.72168 19.8164L8.74121 19.8057L11.29 18.3838C11.4163 18.3139 11.5548 18.2705 11.6973 18.2549L11.8418 18.248H12.1924C12.3306 18.2481 12.4673 18.2748 12.5947 18.3262L12.7188 18.3857L15.2637 19.8096L15.2832 19.8213L15.3047 19.8125C16.013 19.5288 16.6803 19.1521 17.29 18.6934L17.3086 18.6797V18.6562L17.3223 15.8135C17.323 15.663 17.355 15.5143 17.416 15.3779L17.4863 15.2461L17.6475 14.9736C17.7193 14.8443 17.8169 14.7318 17.9336 14.6426L18.0557 14.5615L20.5762 13.1289L20.5957 13.1182L20.5996 13.0947C20.6975 12.3662 20.6965 11.6276 20.5967 10.8994L20.5938 10.877L20.5732 10.8652L18.0518 9.42773H18.0508C17.9227 9.35529 17.8117 9.25725 17.7236 9.14062L17.6436 9.01855L17.4834 8.74707L17.4824 8.74609C17.376 8.57597 17.3192 8.37939 17.3184 8.17871L17.3086 5.34375L17.3076 5.32031Z" fill="#475569" stroke="#475569" stroke-width="0.09375"/>
</svg>
