<svg width="20" height="20" viewBox="0 0 20 20" fill="none" xmlns="http://www.w3.org/2000/svg">
<path d="M5.31274 7.97344V3.125C5.31274 2.87636 5.21397 2.6379 5.03815 2.46209C4.86234 2.28627 4.62388 2.1875 4.37524 2.1875C4.1266 2.1875 3.88814 2.28627 3.71233 2.46209C3.53651 2.6379 3.43774 2.87636 3.43774 3.125V7.97344C2.88945 8.16734 2.41476 8.52645 2.07902 9.00131C1.74327 9.47617 1.56299 10.0434 1.56299 10.625C1.56299 11.2066 1.74327 11.7738 2.07902 12.2487C2.41476 12.7236 2.88945 13.0827 3.43774 13.2766V16.875C3.43774 17.1236 3.53651 17.3621 3.71233 17.5379C3.88814 17.7137 4.1266 17.8125 4.37524 17.8125C4.62388 17.8125 4.86234 17.7137 5.03815 17.5379C5.21397 17.3621 5.31274 17.1236 5.31274 16.875V13.2766C5.86103 13.0827 6.33572 12.7236 6.67146 12.2487C7.00721 11.7738 7.18749 11.2066 7.18749 10.625C7.18749 10.0434 7.00721 9.47617 6.67146 9.00131C6.33572 8.52645 5.86103 8.16734 5.31274 7.97344ZM4.37524 11.5625C4.18982 11.5625 4.00856 11.5075 3.85439 11.4045C3.70022 11.3015 3.58006 11.1551 3.5091 10.9838C3.43815 10.8125 3.41958 10.624 3.45575 10.4421C3.49193 10.2602 3.58122 10.0932 3.71233 9.96209C3.84344 9.83098 4.01049 9.74169 4.19234 9.70551C4.3742 9.66934 4.5627 9.68791 4.73401 9.75886C4.90531 9.82982 5.05173 9.94998 5.15474 10.1042C5.25776 10.2583 5.31274 10.4396 5.31274 10.625C5.31274 10.8736 5.21397 11.1121 5.03815 11.2879C4.86234 11.4637 4.62388 11.5625 4.37524 11.5625ZM12.8127 6.875C12.8119 6.29359 12.6313 5.72667 12.2956 5.25196C11.9599 4.77725 11.4856 4.41799 10.9377 4.22344V3.125C10.9377 2.87636 10.839 2.6379 10.6632 2.46209C10.4873 2.28627 10.2489 2.1875 10.0002 2.1875C9.7516 2.1875 9.51314 2.28627 9.33733 2.46209C9.16151 2.6379 9.06274 2.87636 9.06274 3.125V4.22344C8.51445 4.41734 8.03976 4.77645 7.70402 5.25131C7.36827 5.72617 7.18799 6.29344 7.18799 6.875C7.18799 7.45656 7.36827 8.02383 7.70402 8.49869C8.03976 8.97355 8.51445 9.33266 9.06274 9.52656V16.875C9.06274 17.1236 9.16151 17.3621 9.33733 17.5379C9.51314 17.7137 9.7516 17.8125 10.0002 17.8125C10.2489 17.8125 10.4873 17.7137 10.6632 17.5379C10.839 17.3621 10.9377 17.1236 10.9377 16.875V9.52656C11.4856 9.33201 11.9599 8.97275 12.2956 8.49804C12.6313 8.02333 12.8119 7.45641 12.8127 6.875ZM10.0002 7.8125C9.81482 7.8125 9.63356 7.75752 9.47939 7.6545C9.32522 7.55149 9.20506 7.40507 9.1341 7.23377C9.06315 7.06246 9.04458 6.87396 9.08075 6.6921C9.11693 6.51025 9.20622 6.3432 9.33733 6.21209C9.46844 6.08098 9.63549 5.99169 9.81734 5.95551C9.9992 5.91934 10.1877 5.93791 10.359 6.00886C10.5303 6.07982 10.6767 6.19998 10.7797 6.35415C10.8828 6.50832 10.9377 6.68958 10.9377 6.875C10.9377 7.12364 10.839 7.3621 10.6632 7.53791C10.4873 7.71373 10.2489 7.8125 10.0002 7.8125ZM18.4377 13.125C18.4369 12.5436 18.2563 11.9767 17.9206 11.502C17.5849 11.0273 17.1106 10.668 16.5627 10.4734V3.125C16.5627 2.87636 16.464 2.6379 16.2882 2.46209C16.1123 2.28627 15.8739 2.1875 15.6252 2.1875C15.3766 2.1875 15.1381 2.28627 14.9623 2.46209C14.7865 2.6379 14.6877 2.87636 14.6877 3.125V10.4734C14.1395 10.6673 13.6648 11.0264 13.329 11.5013C12.9933 11.9762 12.813 12.5434 12.813 13.125C12.813 13.7066 12.9933 14.2738 13.329 14.7487C13.6648 15.2236 14.1395 15.5827 14.6877 15.7766V16.875C14.6877 17.1236 14.7865 17.3621 14.9623 17.5379C15.1381 17.7137 15.3766 17.8125 15.6252 17.8125C15.8739 17.8125 16.1123 17.7137 16.2882 17.5379C16.464 17.3621 16.5627 17.1236 16.5627 16.875V15.7766C17.1106 15.582 17.5849 15.2227 17.9206 14.748C18.2563 14.2733 18.4369 13.7064 18.4377 13.125ZM15.6252 14.0625C15.4398 14.0625 15.2586 14.0075 15.1044 13.9045C14.9502 13.8015 14.8301 13.6551 14.7591 13.4838C14.6881 13.3125 14.6696 13.124 14.7058 12.9421C14.7419 12.7602 14.8312 12.5932 14.9623 12.4621C15.0934 12.331 15.2605 12.2417 15.4423 12.2055C15.6242 12.1693 15.8127 12.1879 15.984 12.2589C16.1553 12.3298 16.3017 12.45 16.4047 12.6042C16.5078 12.7583 16.5627 12.9396 16.5627 13.125C16.5627 13.3736 16.464 13.6121 16.2882 13.7879C16.1123 13.9637 15.8739 14.0625 15.6252 14.0625Z" fill="#475569"/>
</svg>
