<svg width="20" height="20" viewBox="0 0 20 20" fill="none" xmlns="http://www.w3.org/2000/svg">
<path d="M2.8125 10C2.8125 9.75135 2.91127 9.5129 3.08709 9.33708C3.2629 9.16127 3.50136 9.0625 3.75 9.0625H9.0625C9.31114 9.0625 9.5496 9.16127 9.72541 9.33708C9.90123 9.5129 10 9.75135 10 10C10 10.2486 9.90123 10.4871 9.72541 10.6629C9.5496 10.8387 9.31114 10.9375 9.0625 10.9375H3.75C3.50136 10.9375 3.2629 10.8387 3.08709 10.6629C2.91127 10.4871 2.8125 10.2486 2.8125 10ZM3.75 5.93749H7.8125C8.06114 5.93749 8.2996 5.83872 8.47541 5.66291C8.65123 5.48709 8.75 5.24864 8.75 4.99999C8.75 4.75135 8.65123 4.5129 8.47541 4.33708C8.2996 4.16127 8.06114 4.06249 7.8125 4.06249H3.75C3.50136 4.06249 3.2629 4.16127 3.08709 4.33708C2.91127 4.5129 2.8125 4.75135 2.8125 4.99999C2.8125 5.24864 2.91127 5.48709 3.08709 5.66291C3.2629 5.83872 3.50136 5.93749 3.75 5.93749ZM14.0625 14.0625H3.75C3.50136 14.0625 3.2629 14.1613 3.08709 14.3371C2.91127 14.5129 2.8125 14.7514 2.8125 15C2.8125 15.2486 2.91127 15.4871 3.08709 15.6629C3.2629 15.8387 3.50136 15.9375 3.75 15.9375H14.0625C14.3111 15.9375 14.5496 15.8387 14.7254 15.6629C14.9012 15.4871 15 15.2486 15 15C15 14.7514 14.9012 14.5129 14.7254 14.3371C14.5496 14.1613 14.3111 14.0625 14.0625 14.0625ZM18.1633 6.21171L15.0383 3.08671C14.9512 2.99931 14.8477 2.92997 14.7337 2.88265C14.6198 2.83533 14.4976 2.81097 14.3742 2.81097C14.2508 2.81097 14.1287 2.83533 14.0147 2.88265C13.9007 2.92997 13.7973 2.99931 13.7102 3.08671L10.5852 6.21171C10.409 6.38783 10.3101 6.6267 10.3101 6.87578C10.3101 7.12485 10.409 7.36372 10.5852 7.53984C10.7613 7.71596 11.0001 7.8149 11.2492 7.8149C11.4983 7.8149 11.7372 7.71596 11.9133 7.53984L13.4375 6.01562V11.25C13.4375 11.4986 13.5363 11.7371 13.7121 11.9129C13.8879 12.0887 14.1264 12.1875 14.375 12.1875C14.6236 12.1875 14.8621 12.0887 15.0379 11.9129C15.2137 11.7371 15.3125 11.4986 15.3125 11.25V6.01562L16.8367 7.54062C16.9239 7.62783 17.0275 7.697 17.1414 7.7442C17.2553 7.79139 17.3775 7.81568 17.5008 7.81568C17.6241 7.81568 17.7462 7.79139 17.8602 7.7442C17.9741 7.697 18.0776 7.62783 18.1648 7.54062C18.252 7.45341 18.3212 7.34989 18.3684 7.23595C18.4156 7.12201 18.4399 6.99989 18.4399 6.87656C18.4399 6.75323 18.4156 6.63111 18.3684 6.51717C18.3212 6.40323 18.252 6.2997 18.1648 6.21249L18.1633 6.21171Z" fill="#475569"/>
</svg>
